<?xml version="1.0" standalone="no"?>
<!DOCTYPE svg PUBLIC "-//W3C//DTD SVG 20010904//EN"
 "http://www.w3.org/TR/2001/REC-SVG-20010904/DTD/svg10.dtd">
<svg version="1.0" xmlns="http://www.w3.org/2000/svg"
 width="700.000000pt" height="700.000000pt" viewBox="0 0 700.000000 700.000000"
 preserveAspectRatio="xMidYMid meet">
<metadata>
Created by potrace 1.14, written by Peter Selinger 2001-2017
</metadata>
<g transform="translate(0.000000,700.000000) scale(0.100000,-0.100000)"
fill="#000000" stroke="none">
<path d="M1223 6765 c-84 -23 -213 -79 -221 -97 -2 -5 -9 -8 -15 -8 -7 0 -25
-11 -41 -25 -16 -14 -33 -25 -38 -25 -11 0 -278 -267 -278 -279 0 -4 -11 -21
-25 -37 -29 -32 -185 -259 -185 -268 0 -3 -15 -29 -33 -58 -49 -78 -198 -359
-197 -373 0 -3 -11 -26 -24 -53 -26 -50 -43 -91 -44 -106 0 -5 -4 -12 -9 -15
-5 -3 -14 -18 -20 -32 -11 -26 -9 -28 55 -71 37 -25 72 -48 79 -52 7 -4 44 25
90 71 71 71 131 127 207 191 83 70 346 233 346 215 0 -5 4 -3 8 3 15 22 187
77 287 90 279 38 498 -68 633 -306 20 -36 37 -67 37 -70 1 -3 8 -18 16 -35 15
-28 57 -156 64 -194 2 -9 4 -16 5 -16 1 0 3 -7 5 -15 1 -8 7 -40 14 -70 16
-83 23 -125 37 -230 23 -176 22 -709 -1 -930 -2 -19 -6 -75 -10 -125 -4 -49
-9 -106 -11 -125 -2 -19 -5 -55 -8 -80 -2 -25 -7 -74 -11 -110 -4 -36 -8 -81
-10 -100 -2 -19 -6 -53 -9 -75 -3 -22 -10 -85 -16 -140 -15 -131 -18 -154 -24
-190 -2 -16 -8 -55 -11 -85 -3 -30 -8 -66 -10 -80 -7 -49 -16 -108 -20 -146
-10 -75 -16 -119 -20 -134 -2 -8 -7 -40 -10 -70 -4 -30 -13 -95 -20 -145 -8
-49 -17 -110 -21 -135 -3 -25 -7 -51 -8 -59 -3 -14 -34 -38 -191 -145 -33 -23
-62 -44 -65 -47 -3 -3 -27 -21 -55 -39 -135 -92 -480 -355 -589 -451 -312
-271 -422 -498 -392 -809 3 -36 7 -72 9 -80 12 -50 30 -107 39 -117 6 -7 7
-13 2 -13 -5 0 -4 -4 1 -8 6 -4 16 -19 24 -34 40 -79 160 -161 281 -194 126
-34 341 -26 482 19 26 8 49 12 52 9 4 -3 6 1 6 8 0 7 3 11 6 7 14 -13 165 76
249 147 95 81 158 150 295 321 40 50 79 99 89 110 9 11 34 45 56 75 22 30 47
62 55 71 8 9 31 40 50 69 19 28 42 59 51 68 8 10 49 64 89 122 41 58 83 114
92 124 10 11 20 28 24 38 3 10 10 18 15 18 5 0 9 6 9 14 0 8 4 16 8 18 5 2 31
35 57 73 27 39 64 93 84 120 19 28 38 51 43 53 4 2 8 8 8 13 0 8 72 114 100
146 5 7 10 14 10 17 0 5 130 191 152 217 7 9 18 23 23 32 43 68 100 147 107
147 4 0 8 4 8 10 0 8 87 134 136 195 8 11 23 32 32 48 9 15 20 27 24 27 4 0 8
5 8 10 0 6 4 16 10 23 5 7 126 167 268 357 238 320 352 469 377 496 5 6 21 26
35 44 14 19 36 47 50 64 14 17 29 37 35 44 5 7 18 22 28 33 9 10 17 24 17 29
0 6 4 10 8 10 4 0 24 21 44 47 20 27 49 63 65 81 15 18 39 46 53 63 14 17 30
37 35 43 6 6 35 40 64 76 30 36 57 67 60 70 3 3 31 34 61 70 30 36 71 83 91
105 97 107 159 174 217 234 l64 66 -6 -40 c-3 -22 -7 -49 -10 -60 -2 -11 -7
-49 -11 -85 -4 -36 -9 -68 -11 -71 -4 -7 -16 -105 -18 -141 0 -10 -3 -18 -6
-18 -3 0 -5 -12 -4 -27 0 -16 -3 -45 -8 -65 -4 -21 -10 -62 -13 -91 -3 -30 -7
-63 -10 -75 -2 -11 -7 -52 -10 -89 -4 -37 -9 -70 -10 -73 -2 -3 -6 -39 -10
-79 -4 -41 -8 -82 -10 -90 -2 -9 -6 -45 -10 -81 -3 -36 -8 -78 -10 -95 -2 -16
-6 -66 -10 -110 -4 -44 -9 -96 -11 -115 -5 -49 -14 -171 -19 -255 -31 -502
-21 -929 30 -1260 8 -54 15 -99 19 -135 2 -19 7 -42 10 -50 3 -8 7 -31 10 -50
21 -132 112 -452 166 -580 18 -41 32 -81 33 -87 0 -7 3 -13 6 -13 3 0 13 -15
20 -32 47 -106 176 -265 264 -325 23 -15 44 -30 47 -33 12 -12 130 -61 185
-77 64 -18 267 -24 335 -9 81 17 156 38 165 47 5 5 17 9 27 9 10 0 18 5 18 10
0 6 7 10 15 10 16 0 132 70 174 105 105 87 164 148 239 249 29 39 56 76 60 81
19 26 124 198 161 265 62 112 237 467 246 500 1 3 16 36 33 74 18 38 31 70 30
70 -9 3 -45 26 -92 59 l-55 39 -84 -84 c-108 -107 -134 -130 -237 -209 -85
-66 -194 -139 -208 -139 -4 0 -18 -9 -32 -20 -14 -11 -32 -20 -41 -20 -9 0
-22 -6 -28 -14 -6 -8 -22 -16 -34 -19 -12 -3 -46 -14 -74 -25 -29 -11 -53 -18
-53 -16 0 3 -8 0 -17 -5 -44 -23 -241 -40 -333 -28 -43 5 -160 41 -160 49 0 5
-6 8 -14 8 -18 0 -137 92 -160 125 -11 14 -30 38 -42 53 -37 43 -132 244 -139
292 0 3 -4 11 -8 17 -5 7 -6 13 -2 13 3 0 1 8 -4 18 -6 11 -12 30 -15 43 -4
21 -15 76 -30 155 -2 12 -7 45 -11 74 -4 29 -8 62 -10 72 -26 131 -25 733 1
968 2 19 6 72 8 117 3 45 7 94 10 110 4 27 16 146 21 208 4 42 17 157 20 175
2 9 6 47 10 85 9 86 11 108 19 165 3 25 8 64 11 88 7 63 15 123 20 162 2 19 7
55 10 80 6 50 14 105 19 135 2 11 7 47 11 80 3 33 10 87 15 120 5 33 12 83 16
110 3 28 11 83 18 124 l11 73 135 89 c74 49 142 92 149 96 8 3 69 44 135 90
67 45 130 88 140 95 34 23 261 192 305 228 74 59 235 223 266 270 17 25 32 47
35 50 15 14 97 201 98 223 0 4 5 31 11 60 11 59 11 67 12 160 0 205 -119 402
-295 487 -95 46 -135 54 -271 54 -156 0 -240 -21 -390 -95 -190 -93 -364 -262
-633 -614 -51 -66 -98 -127 -105 -135 -6 -8 -29 -38 -49 -67 -21 -30 -42 -59
-48 -66 -16 -19 -73 -96 -116 -158 -21 -31 -84 -121 -140 -200 -55 -79 -130
-187 -165 -239 -35 -52 -70 -101 -76 -108 -7 -7 -13 -17 -13 -22 0 -5 -6 -15
-13 -22 -7 -7 -54 -74 -104 -148 -133 -199 -370 -539 -382 -550 -3 -3 -22 -27
-41 -55 -19 -27 -38 -54 -42 -60 -4 -5 -98 -131 -209 -279 -111 -149 -207
-275 -213 -282 -6 -7 -22 -27 -36 -45 -111 -146 -459 -569 -509 -620 -9 -9
-32 -35 -51 -58 -19 -24 -53 -62 -75 -86 -22 -24 -72 -78 -111 -122 -40 -43
-115 -123 -168 -178 l-97 -100 5 45 c2 25 7 61 11 80 3 19 8 55 10 80 2 25 5
46 6 48 3 4 5 15 13 77 4 32 9 67 11 75 2 9 6 43 10 76 11 94 14 118 19 141 2
12 8 53 11 90 4 37 8 75 10 83 2 8 7 47 11 85 3 39 8 79 10 90 2 11 6 49 9 86
3 36 8 81 10 100 2 19 7 70 10 114 4 44 8 91 10 105 3 14 7 63 10 110 3 47 8
110 10 140 23 317 23 897 0 1020 -2 14 -7 54 -10 90 -7 88 -12 132 -26 220 -7
41 -13 84 -14 95 -1 11 -5 31 -8 45 -3 14 -13 57 -22 96 -9 38 -18 79 -20 90
-2 10 -4 19 -5 19 -1 0 -3 9 -5 20 -2 11 -5 27 -8 35 -31 120 -81 278 -109
350 -23 58 -126 262 -137 270 -3 3 -19 23 -36 45 -138 186 -321 283 -550 290
-92 3 -125 0 -202 -20z"/>
</g>
</svg>
